<?xml version="1.0" encoding="UTF-8"?>
<svg version="1.1" xmlns="http://www.w3.org/2000/svg" width="2048" height="2048">
<path d="M0 0 C1.32266202 0.49295821 2.64583925 0.9845359 3.96948242 1.47485352 C46.63860227 17.4486064 88.40070352 36.4561325 127.75 59.4375 C128.73258789 60.00662109 129.71517578 60.57574219 130.72753906 61.16210938 C147.94217319 71.15913506 164.41788372 82.07743765 180.75 93.4375 C181.92852539 94.25637695 181.92852539 94.25637695 183.13085938 95.09179688 C190.95740737 100.55165668 198.57501254 106.27051761 206.09375 112.14453125 C207.798816 113.47560872 209.50863179 114.80042183 211.21875 116.125 C217.62181131 121.101808 223.9076589 126.18809779 230.07080078 131.45947266 C233.375409 134.28553098 236.72764122 137.03512393 240.125 139.75 C245.39826087 144.035007 250.34381939 148.63054013 255.27294922 153.30200195 C258.3024246 156.1709291 261.35868116 158.98213984 264.52246094 161.70288086 C268.52561277 165.19652389 272.3165842 168.85892616 276.06640625 172.62109375 C276.72656235 173.28029312 277.38671844 173.93949249 278.06687927 174.6186676 C279.45035506 176.00146835 280.83259083 177.38551076 282.21362305 178.77075195 C284.30731669 180.86980343 286.40629874 182.9634594 288.50585938 185.05664062 C289.85969571 186.41113786 291.21322175 187.76594531 292.56640625 189.12109375 C293.18326797 189.73593124 293.8001297 190.35076874 294.4356842 190.98423767 C301.78797995 198.37553036 308.75894592 206.12994383 314.375 214.9375 C314.96539063 215.8553125 315.55578125 216.773125 316.1640625 217.71875 C320.4474848 225.06175966 320.16086693 231.13509078 318.75 239.4375 C313.10427933 255.4056204 297.50721032 266.69877658 284.72265625 277 C281.21681395 279.87469855 277.79332653 282.83475778 274.375 285.8125 C268.07577046 291.29756506 261.72604017 296.71745262 255.33837891 302.09912109 C252.66091047 304.35517427 249.98627043 306.61456606 247.3125 308.875 C246.78011719 309.32488281 246.24773437 309.77476562 245.69921875 310.23828125 C242.25778995 313.15025946 238.83328959 316.08121267 235.41601562 319.02148438 C230.75818074 323.02915256 226.08696364 327.00591613 221.3125 330.875 C214.96723119 336.02936792 208.82490552 341.41112765 202.65966797 346.77783203 C195.61727609 352.8982846 188.55997199 358.99780337 181.3125 364.875 C176.26145932 368.97665271 171.34871604 373.22341011 166.44213867 377.49536133 C160.80637367 382.39978387 155.11345737 387.23302108 149.39990234 392.04638672 C146.40881929 394.56831499 143.4235957 397.09717056 140.4375 399.625 C139.33726318 400.55601747 138.23700506 401.48700977 137.13671875 402.41796875 C135.95529297 403.41763672 135.95529297 403.41763672 134.75 404.4375 C137.246773 408.27643502 139.86675648 411.95428541 142.65625 415.58496094 C182.09277539 467.00452629 208.84437088 526.15569312 225.75 588.4375 C225.97671387 589.25508789 226.20342773 590.07267578 226.43701172 590.91503906 C227.40313452 594.53146029 227.82689605 597.70744392 227.75 601.4375 C228.8620751 601.28896356 229.9741502 601.14042711 231.11992455 600.98738956 C258.23873031 597.36553535 285.35858511 593.75162001 312.47954369 590.14592075 C325.59525854 588.402017 338.71062659 586.65558006 351.82519531 584.90307617 C363.26217913 583.37475513 374.69979802 581.85129224 386.13818991 580.33354419 C392.18891906 579.53050991 398.23931336 578.72512495 404.28895187 577.91391182 C409.99590231 577.14872906 415.70368743 576.390099 421.41214561 575.63624954 C423.49477784 575.36008999 425.57710827 575.081642 427.65908623 574.80059242 C472.1707981 568.79760727 472.1707981 568.79760727 482.99609375 575.9140625 C495.22913366 585.74538632 495.1552973 605.99861009 496.8125 620.6875 C496.89682281 621.42083557 496.98114563 622.15417114 497.06802368 622.909729 C507.18662252 711.18048502 502.00515141 801.3856158 463.375 950.125 C462.99559265 951.26811646 462.99559265 951.26811646 462.60852051 952.43432617 C454.5204783 976.68657608 454.5204783 976.68657608 447.75 982.4375 C440.18384851 986.12102112 432.50278856 985.24303622 424.70581055 982.69628906 C420.01473547 981.04333247 415.38236046 979.24744922 410.75 977.4375 C409.59628906 976.99116211 408.44257812 976.54482422 407.25390625 976.08496094 C390.80590677 969.71504784 374.44653439 963.11881852 358.07221985 956.56257057 C355.79171882 955.64949354 353.51115925 954.73656284 351.23059082 953.82365417 C344.36349079 951.07454248 337.49675639 948.32454504 330.63234234 945.56873226 C314.55185521 939.11415804 298.44574408 932.73731665 282.27798462 926.50434875 C273.54886631 923.13889607 264.84108258 919.72631525 256.16256714 916.23248291 C254.06240357 915.38714752 251.96111291 914.5446595 249.85961914 913.70263672 C243.27428925 911.06304938 236.69229996 908.41525157 230.11314392 905.76031494 C227.30450238 904.62750558 224.49486906 903.49716977 221.68508911 902.3671875 C219.72639672 901.57816874 217.76931378 900.78524979 215.81225586 899.9921875 C214.64573486 899.52296875 213.47921387 899.05375 212.27734375 898.5703125 C211.25374756 898.15668457 210.23015137 897.74305664 209.17553711 897.31689453 C206.86663233 896.32388454 206.86663233 896.32388454 204.75 896.4375 C204.44932617 897.12972656 204.14865234 897.82195313 203.83886719 898.53515625 C182.05592244 948.52232198 154.7965097 995.89344655 117.734375 1036.26953125 C115.82442617 1038.35618794 113.97054653 1040.48138954 112.125 1042.625 C109.3468869 1045.82111623 106.41388643 1048.80257731 103.38671875 1051.76171875 C101.79061373 1053.39591697 100.36221926 1055.09096737 98.9375 1056.875 C98.215625 1057.720625 97.49375 1058.56625 96.75 1059.4375 C96.09 1059.4375 95.43 1059.4375 94.75 1059.4375 C94.35554688 1060.33662109 94.35554688 1060.33662109 93.953125 1061.25390625 C92.67828007 1063.56766701 91.53090523 1064.71054071 89.5 1066.375 C85.52174459 1069.73232988 81.72711555 1073.24661801 77.9375 1076.8125 C72.77457908 1081.65070018 67.49861804 1086.22945269 61.95703125 1090.6328125 C60.09806572 1092.15288697 58.40490471 1093.70173676 56.75 1095.4375 C57.51183594 1096.24832031 58.27367187 1097.05914063 59.05859375 1097.89453125 C64.78073287 1104.01887735 70.28881305 1110.21869315 75.5390625 1116.7578125 C77.8593495 1119.57003315 80.28071134 1122.25547263 82.75 1124.9375 C86.02418423 1128.49420244 89.15642433 1132.10911811 92.1875 1135.875 C95.40943101 1139.86973986 98.75655495 1143.68304349 102.25 1147.4375 C106.53955113 1152.04754336 110.55410672 1156.81532956 114.50390625 1161.72265625 C116.8383059 1164.54423495 119.26990598 1167.24340712 121.75 1169.9375 C125.02418423 1173.49420244 128.15642433 1177.10911811 131.1875 1180.875 C134.84571015 1185.41066443 138.69742965 1189.6945117 142.66381836 1193.95678711 C146.44490558 1198.04411006 149.94689966 1202.31793244 153.4375 1206.65625 C155.94971133 1209.67769336 158.57402457 1212.56190078 161.25 1215.4375 C165.5395776 1220.04751639 169.55410897 1224.81533236 173.50390625 1229.72265625 C175.8383059 1232.54423495 178.26990598 1235.24340712 180.75 1237.9375 C184.83441735 1242.37489169 188.66108745 1246.95987135 192.4375 1251.66015625 C195.7224405 1255.60541418 199.23770115 1259.31427327 202.78125 1263.02734375 C204.64215749 1265.30547851 205.37717317 1266.5680649 205.75 1269.4375 C206.41 1269.4375 207.07 1269.4375 207.75 1269.4375 C208.98987208 1271.64280608 210.22117451 1273.85190067 211.4375 1276.0703125 C212.4413657 1277.88085599 213.49195646 1279.66556586 214.5625 1281.4375 C216.48065199 1286.28335767 216.71348203 1290.62352073 215.01171875 1295.59375 C207.91244412 1309.84393035 194.5169481 1318.79233508 181.75 1327.4375 C180.66187012 1328.18064453 179.57374023 1328.92378906 178.45263672 1329.68945312 C153.22964653 1346.90069343 127.48249982 1362.80527526 100.43798828 1377.015625 C98.20451244 1378.19707489 95.98626336 1379.39853762 93.77734375 1380.625 C21.30649469 1420.56301096 -61.53479754 1444.38083632 -177.625 1460.25 C-178.90737549 1460.37407227 -180.18975098 1460.49814453 -181.51098633 1460.62597656 C-207.40545483 1462.94289502 -207.40545483 1462.94289502 -217.125 1455.125 C-221.96823465 1448.99973265 -222.64259222 1443.87271556 -222.37438965 1436.33285522 C-222.34330897 1434.54158645 -222.31660908 1432.7502373 -222.29386902 1430.95884323 C-222.28158705 1430.04283954 -222.26930508 1429.12683585 -222.25665092 1428.18307447 C-222.24611134 1423.83221845 -222.44278228 1419.49842089 -222.66760254 1415.15420532 C-222.71268196 1414.2777123 -222.75776138 1413.40121927 -222.80420685 1412.49816585 C-222.95205413 1409.7024857 -223.10585372 1406.90716868 -223.25976562 1404.11181641 C-223.36860289 1402.06266702 -223.47696132 1400.01349216 -223.58488464 1397.96429443 C-223.81592908 1393.59591687 -224.05022057 1389.22773074 -224.28715515 1384.85966873 C-224.6623967 1377.94029853 -225.02976403 1371.02052313 -225.39611816 1364.10067749 C-226.1084017 1350.66672588 -226.82852822 1337.23320041 -227.54950714 1323.79971313 C-228.46796819 1306.67947902 -229.38274773 1289.55905088 -230.29063749 1272.43825281 C-230.65505533 1265.57098926 -231.02326395 1258.70394296 -231.39453888 1251.83704686 C-231.6251877 1247.55796697 -231.85277112 1243.27872781 -232.07958412 1238.99944305 C-232.18469974 1237.02824095 -232.29107804 1235.05710567 -232.39887047 1233.08604813 C-232.97590219 1222.52240898 -233.41054936 1212.02060266 -233.25 1201.4375 C-234.56154053 1201.45321045 -235.87308105 1201.4689209 -237.22436523 1201.48510742 C-263.40686552 1201.7704002 -289.24707035 1201.78154956 -315.25 1198.4375 C-316.38791992 1198.29296387 -317.52583984 1198.14842773 -318.69824219 1197.99951172 C-368.59594141 1191.44472231 -416.56792806 1176.65296051 -462.05932617 1155.35107422 C-464.16206352 1154.30919993 -464.16206352 1154.30919993 -466.25 1154.4375 C-466.55067383 1154.99397217 -466.85134766 1155.55044434 -467.16113281 1156.1237793 C-473.18797962 1167.26296837 -479.29407632 1178.34683595 -485.60644531 1189.3269043 C-489.53703071 1196.16985784 -493.40305971 1203.0472142 -497.25 1209.9375 C-502.02192014 1218.48149079 -506.84160169 1226.99558637 -511.7109375 1235.484375 C-515.60156994 1242.27754275 -519.43259537 1249.10295463 -523.25 1255.9375 C-528.05094212 1264.53183579 -532.89473154 1273.09947667 -537.79003906 1281.64038086 C-541.38413693 1287.91344574 -544.94805812 1294.20298113 -548.5 1300.5 C-553.19273591 1308.81372721 -557.90428215 1317.11653815 -562.63635254 1325.40792847 C-563.32561634 1326.61582105 -564.01451278 1327.82392335 -564.70300293 1329.03225708 C-576.18293181 1349.17584981 -576.18293181 1349.17584981 -582.66796875 1358.17578125 C-584.40107751 1360.57565658 -584.40107751 1360.57565658 -586.1875 1363.875 C-589.88520432 1368.46911749 -593.95778964 1369.16830804 -599.54296875 1369.82421875 C-618.59457668 1370.72761428 -633.68709643 1360.18604254 -649.25 1350.4375 C-650.40532227 1349.71506104 -650.40532227 1349.71506104 -651.58398438 1348.97802734 C-677.36429029 1332.75859137 -702.11758858 1314.96544012 -725.62109375 1295.6015625 C-727.35728158 1294.17236776 -729.0993864 1292.75032724 -730.84765625 1291.3359375 C-746.4163964 1278.72502869 -761.47542875 1265.44742166 -775.51171875 1251.140625 C-777.27413632 1249.41385183 -779.11028586 1247.83566645 -781 1246.25 C-785.26152436 1242.59128459 -788.97432837 1238.49723151 -792.74584961 1234.34814453 C-795.77384186 1231.02075422 -798.85544093 1227.7828039 -802.0625 1224.625 C-805.35048499 1221.37833619 -808.43770505 1218.03000287 -811.4453125 1214.5234375 C-813.46651276 1212.18724499 -815.54378839 1209.90785149 -817.625 1207.625 C-821.88577387 1202.89797983 -825.92654643 1198.02497351 -829.91796875 1193.06982422 C-831.43679077 1191.20859914 -832.98308847 1189.37204101 -834.53125 1187.53515625 C-850.71658157 1168.20318432 -850.71658157 1168.20318432 -850.53125 1155.85546875 C-848.83437984 1141.26709888 -839.02156915 1134.00686854 -828.25 1125.4375 C-824.30514066 1122.44900499 -820.24082948 1119.62867244 -816.18359375 1116.79589844 C-812.61988013 1114.29229963 -809.09229098 1111.73859529 -805.5625 1109.1875 C-804.80751221 1108.6423877 -804.05252441 1108.09727539 -803.2746582 1107.53564453 C-796.93989628 1102.95390269 -790.64714657 1098.31639069 -784.35888672 1093.67114258 C-775.29893979 1086.98509825 -766.15963888 1080.41013981 -757.02050781 1073.83300781 C-747.75847805 1067.16515706 -738.53415107 1060.45072961 -729.35571289 1053.66821289 C-723.27455095 1049.17933637 -717.15404491 1044.74759187 -711.01953125 1040.33203125 C-705.56916139 1036.40357968 -700.15327158 1032.43043172 -694.75 1028.4375 C-687.79175957 1023.29572205 -680.79852919 1018.20576344 -673.77783203 1013.1496582 C-666.5697312 1007.95593975 -659.40525955 1002.7036866 -652.25 997.4375 C-653.61644632 993.57488524 -655.38977139 990.6793695 -657.87109375 987.4296875 C-662.37911097 981.35061765 -666.39811499 975.03508009 -670.3125 968.5625 C-670.67483734 967.96512024 -671.03717468 967.36774048 -671.41049194 966.7522583 C-696.24402994 925.67004902 -730.25 867.35323685 -730.25 818.4375 C-761.0181604 824.84214036 -791.73267454 831.48308693 -822.43240356 838.20687866 C-827.60731868 839.3400994 -832.78276349 840.47088008 -837.95838261 841.60088062 C-857.20980393 845.80455905 -876.45793958 850.01967781 -895.6807251 854.35269165 C-902.00674912 855.77853076 -908.335623 857.19151368 -914.66526031 858.60121727 C-919.67817933 859.71898175 -924.68663107 860.85444969 -929.69235134 862.0039978 C-932.77252222 862.70680841 -935.85636435 863.39229479 -938.9414463 864.07318878 C-940.34272419 864.38610521 -941.74247017 864.70599191 -943.14029503 865.03398895 C-955.0747946 867.82860349 -968.12254729 869.43439266 -979.171875 862.921875 C-987.40553662 857.04068813 -989.65801626 848.87972649 -992.25 839.4375 C-992.49443848 838.55698975 -992.73887695 837.67647949 -992.99072266 836.76928711 C-995.03991693 829.03052742 -996.26686897 821.31369292 -997.25 813.375 C-997.37406723 812.39262863 -997.37406723 812.39262863 -997.50064087 811.39041138 C-998.88226445 800.4069725 -999.98157603 789.40307238 -1000.9375 778.375 C-1000.9981665 777.68566376 -1001.05883301 776.99632751 -1001.12133789 776.28610229 C-1002.98746983 754.81435481 -1003.45688279 733.35844573 -1003.4375 711.8125 C-1003.43689575 710.56326752 -1003.4362915 709.31403503 -1003.43566895 708.02694702 C-1003.40874974 687.43260605 -1002.98405945 666.96101781 -1001.25 646.4375 C-1001.1891925 645.70470825 -1001.12838501 644.9719165 -1001.06573486 644.21691895 C-999.40741602 624.42456167 -996.86642855 604.80168309 -993.75 585.1875 C-993.53484238 583.80496536 -993.53484238 583.80496536 -993.31533813 582.39450073 C-989.17369754 556.02787925 -989.17369754 556.02787925 -979.25 547.4375 C-968.00092713 539.42472886 -955.06326352 542.35146322 -942.25 544.4375 C-936.66640325 545.46792478 -931.13216411 546.73388318 -925.59375 547.98046875 C-923.96875206 548.34125011 -922.34363092 548.70147693 -920.71839905 549.061203 C-916.31473806 550.03758243 -911.91286534 551.02181128 -907.51128006 552.00749969 C-902.83138358 553.05405689 -898.14983805 554.09318832 -893.46850586 555.13330078 C-883.2515941 557.40483689 -873.03681644 559.68586654 -862.82244873 561.96881104 C-856.05007983 563.48241359 -849.27727254 564.9940485 -842.50439453 566.50537109 C-805.195832 574.83104932 -805.195832 574.83104932 -787.5390625 578.78198242 C-784.36619798 579.49169249 -781.19332293 580.2013555 -778.02044487 580.91100502 C-775.13453265 581.55671062 -772.2487883 582.20316227 -769.36305237 582.84965515 C-767.55920216 583.25325071 -765.7553239 583.65672089 -763.95141602 584.06005859 C-762.6545038 584.35029829 -762.6545038 584.35029829 -761.33139133 584.64640141 C-756.51010587 585.72194761 -751.68505873 586.7777308 -746.85543823 587.81524658 C-745.79714026 588.04301096 -744.7388423 588.27077534 -743.64847469 588.50544167 C-741.59823882 588.9456965 -739.54749305 589.38358508 -737.49618626 589.81882286 C-736.57733111 590.01610796 -735.65847597 590.21339306 -734.71177673 590.41665649 C-733.48981299 590.67669181 -733.48981299 590.67669181 -732.24316311 590.94198036 C-730.25 591.4375 -730.25 591.4375 -728.25 592.4375 C-727.95609375 591.03177734 -727.95609375 591.03177734 -727.65625 589.59765625 C-721.32878578 560.54784227 -710.45310169 532.47237483 -698.25 505.4375 C-697.91000977 504.67630859 -697.57001953 503.91511719 -697.21972656 503.13085938 C-680.38636881 465.56769152 -657.47575048 430.12016129 -631.25 398.4375 C-634.13470036 394.471037 -637.4270644 391.43743912 -641.12695312 388.27148438 C-644.51387573 385.34570671 -647.74829949 382.26175437 -651 379.1875 C-656.69106904 373.82875616 -662.41903448 368.51720121 -668.19140625 363.24609375 C-671.73462865 360.00193661 -675.24163806 356.71925903 -678.75 353.4375 C-684.23804508 348.3050008 -689.75595254 343.20775702 -695.30078125 338.13671875 C-703.825565 330.33456568 -712.29222008 322.471035 -720.73364258 314.57885742 C-725.51290959 310.11480163 -730.32892601 305.69332031 -735.15625 301.28125 C-738.70977503 298.02385206 -742.22942534 294.73042446 -745.75 291.4375 C-751.23806767 286.30502466 -756.75595224 281.20775729 -762.30078125 276.13671875 C-770.27669215 268.83691156 -778.20914209 261.48984729 -786.125 254.125 C-786.73126221 253.56256592 -787.33752441 253.00013184 -787.9621582 252.4206543 C-789.73414352 250.76921551 -791.49441441 249.10635391 -793.25 247.4375 C-793.86536621 246.8585498 -794.48073242 246.27959961 -795.11474609 245.68310547 C-798.80205023 242.12703606 -801.61255475 238.7029546 -804.125 234.1875 C-804.98738281 232.66382813 -804.98738281 232.66382813 -805.8671875 231.109375 C-809.71100516 223.68233749 -809.09738754 215.32036201 -806.8125 207.4375 C-802.30918536 195.74658933 -793.11941237 186.85750685 -784.3293457 178.2355957 C-782.67840342 176.61607656 -781.03861652 174.9858881 -779.40039062 173.35351562 C-774.40822091 168.39825738 -769.36476223 163.54091739 -764.01831055 158.96508789 C-761.07380614 156.4214231 -758.26749954 153.73194088 -755.4375 151.0625 C-750.44454716 146.39066099 -745.34431243 141.93949685 -740.00390625 137.6640625 C-737.53832681 135.67061529 -735.12449322 133.62766142 -732.72167969 131.55932617 C-725.17449242 125.07497675 -717.32549707 119.02778939 -709.37890625 113.04296875 C-707.3517792 111.51425459 -705.33139563 109.97706025 -703.3125 108.4375 C-675.38602121 87.21619342 -645.8566683 68.5296716 -615.25 51.4375 C-614.28658691 50.89754395 -613.32317383 50.35758789 -612.33056641 49.80126953 C-588.6424395 36.58976739 -564.16528173 24.97397059 -539.125 14.5625 C-537.94059326 14.06862793 -536.75618652 13.57475586 -535.53588867 13.06591797 C-523.22123647 8.03686018 -511.47910907 4.90932018 -498.43359375 9.48046875 C-490.43791182 12.98483739 -488.32587306 18.6920605 -485.25 26.4375 C-480.9697213 37.66208079 -476.83613216 48.94309974 -472.67675781 60.21289062 C-470.81412256 65.25947341 -468.95003764 70.30552066 -467.0859375 75.3515625 C-466.69388123 76.41288391 -466.30182495 77.47420532 -465.89788818 78.56768799 C-461.35609458 90.86040398 -456.80296039 103.14891665 -452.25 115.4375 C-445.7371211 133.01676288 -439.23150283 150.59868093 -432.73538208 168.18414307 C-423.58966637 192.94121388 -414.41956107 217.68925323 -405.25 242.4375 C-400.13380598 241.3371339 -395.07364085 240.16782341 -390.046875 238.703125 C-344.90233899 225.76422333 -298.95012805 219.18798704 -252 219.25 C-251.14004425 219.25060425 -250.2800885 219.2512085 -249.39407349 219.25183105 C-209.51147388 219.32705268 -169.9566903 223.65617103 -131.25 233.4375 C-127.83446335 225.43067569 -124.68901338 217.36750263 -121.7578125 209.171875 C-121.33923477 208.0092514 -120.92065704 206.84662781 -120.48939514 205.64877319 C-119.35246879 202.48908637 -118.21821011 199.32846668 -117.08514023 196.16739655 C-115.87713185 192.79942565 -114.66553317 189.43274661 -113.4543457 186.06591797 C-111.15602107 179.67544204 -108.86072018 173.28388475 -106.56669903 166.89186287 C-103.80819971 159.20583028 -101.04678166 151.52084731 -98.28515625 143.8359375 C-97.55007259 141.7903087 -96.8149963 139.74467725 -96.07992172 137.69904518 C-95.59283898 136.34355274 -95.10575047 134.98806237 -94.61865616 133.63257408 C-93.16460311 129.58617866 -91.71080009 125.5396935 -90.25716782 121.4931469 C-79.77693435 92.31945913 -69.28366049 63.14999774 -58.63659668 34.03668213 C-57.97219136 32.21986363 -57.30882103 30.40266673 -56.64550781 28.58544922 C-55.52530374 25.53163575 -54.39167154 22.48334348 -53.25 19.4375 C-52.90573975 18.50357422 -52.56147949 17.56964844 -52.20678711 16.60742188 C-48.68714189 7.35762774 -43.36214852 0.64310701 -34.25 -3.5625 C-22.88552747 -7.29176599 -10.67419067 -4.13477677 0 0 Z M-275.25 581.4375 C-276.89343127 581.7623958 -278.5395247 582.07399995 -280.1875 582.375 C-284.78993316 583.27049605 -288.9256158 584.6544983 -293.25 586.4375 C-295.08316884 587.16708013 -296.91650593 587.89623761 -298.75 588.625 C-300.25034778 589.2283025 -301.75047375 589.83215846 -303.25 590.4375 C-303.25 591.0975 -303.25 591.7575 -303.25 592.4375 C-305.56 593.0975 -307.87 593.7575 -310.25 594.4375 C-310.25 595.0975 -310.25 595.7575 -310.25 596.4375 C-311.03375 596.581875 -311.8175 596.72625 -312.625 596.875 C-315.21421018 597.31548925 -315.21421018 597.31548925 -317.25 598.4375 C-317.25 599.0975 -317.25 599.7575 -317.25 600.4375 C-317.889375 600.56125 -318.52875 600.685 -319.1875 600.8125 C-319.868125 601.01875 -320.54875 601.225 -321.25 601.4375 C-321.58 602.0975 -321.91 602.7575 -322.25 603.4375 C-322.930625 603.829375 -323.61125 604.22125 -324.3125 604.625 C-330.66566393 608.54503732 -335.60407492 613.66148503 -340.25 619.4375 C-341.5803125 620.7059375 -341.5803125 620.7059375 -342.9375 622 C-345.27567641 624.46456432 -346.04201885 626.33126275 -347.25 629.4375 C-348.735 629.9325 -348.735 629.9325 -350.25 630.4375 C-351.76720902 632.71426621 -351.76720902 632.71426621 -353.125 635.5 C-354.95742982 639.03233978 -356.83038164 642.39431668 -359.0625 645.6875 C-361.3855612 649.29122314 -361.98387046 652.17942738 -362.25 656.4375 C-362.91 656.4375 -363.57 656.4375 -364.25 656.4375 C-364.44335938 657.23414063 -364.63671875 658.03078125 -364.8359375 658.8515625 C-365.09632813 659.91117188 -365.35671875 660.97078125 -365.625 662.0625 C-366.00785156 663.62871094 -366.00785156 663.62871094 -366.3984375 665.2265625 C-367.25 668.4375 -367.25 668.4375 -368.25 671.3125 C-375.87850159 695.15156748 -373.38113699 723.50540805 -362.75 746.0625 C-360.84223032 750.16045844 -359.00818421 754.27337951 -357.25 758.4375 C-356.59 758.4375 -355.93 758.4375 -355.25 758.4375 C-355.105625 759.035625 -354.96125 759.63375 -354.8125 760.25 C-354.3627561 761.99900404 -353.82107659 763.72427023 -353.25 765.4375 C-352.59 765.4375 -351.93 765.4375 -351.25 765.4375 C-351.04375 766.0975 -350.8375 766.7575 -350.625 767.4375 C-348.73244564 771.56670951 -346.04623367 774.88063282 -343.25 778.4375 C-342.26 779.7678125 -342.26 779.7678125 -341.25 781.125 C-338.83289365 783.91977921 -336.11483155 786.10982437 -333.25 788.4375 C-332.13625 789.5821875 -332.13625 789.5821875 -331 790.75 C-329.41523212 792.66887852 -329.41523212 792.66887852 -327.25 792.4375 C-327.25 793.0975 -327.25 793.7575 -327.25 794.4375 C-325.76363242 795.7981009 -325.76363242 795.7981009 -323.875 797.0625 C-323.24851562 797.50851562 -322.62203125 797.95453125 -321.9765625 798.4140625 C-320.29777357 799.60746969 -320.29777357 799.60746969 -318.25 799.4375 C-318.25 800.0975 -318.25 800.7575 -318.25 801.4375 C-317.1053125 801.994375 -317.1053125 801.994375 -315.9375 802.5625 C-311.78135406 804.6206871 -307.76913357 806.93907137 -303.73828125 809.23046875 C-301.26106602 810.65572339 -301.26106602 810.65572339 -298.25 810.4375 C-298.25 811.0975 -298.25 811.7575 -298.25 812.4375 C-297.27160156 812.72753906 -297.27160156 812.72753906 -296.2734375 813.0234375 C-288.72300771 815.27297558 -288.72300771 815.27297558 -285.375 816.4375 C-273.61769089 820.19983891 -262.54393868 821.61344173 -250.25 821.5625 C-249.31671875 821.56636719 -248.3834375 821.57023437 -247.421875 821.57421875 C-238.76027618 821.56212154 -230.63120927 820.75915455 -222.25 818.5625 C-221.55068359 818.38106445 -220.85136719 818.19962891 -220.13085938 818.01269531 C-218.16811248 817.49690369 -216.20890406 816.96769924 -214.25 816.4375 C-213.02796875 816.11652344 -213.02796875 816.11652344 -211.78125 815.7890625 C-203.86446098 813.44447498 -196.55709572 809.21208564 -189.25 805.4375 C-189.25 804.7775 -189.25 804.1175 -189.25 803.4375 C-188.198125 803.210625 -187.14625 802.98375 -186.0625 802.75 C-182.03882848 801.60268804 -180.06753955 799.54401796 -177.25 796.4375 C-174.41143929 793.84451452 -171.95575254 791.67275085 -168.25 790.4375 C-166.98014972 788.97228814 -165.71462744 787.50192672 -164.5078125 785.984375 C-162.89014268 783.99494255 -161.06215318 782.24965318 -159.25 780.4375 C-156.24362852 777.34613096 -156.24362852 777.34613096 -155.25 773.4375 C-154.59 773.4375 -153.93 773.4375 -153.25 773.4375 C-152.92 772.4475 -152.59 771.4575 -152.25 770.4375 C-151.25823004 769.42933715 -150.25743463 768.43000968 -149.25 767.4375 C-147.39901698 764.54111129 -145.8455577 761.48071258 -144.25 758.4375 C-143.74984375 757.49003906 -143.2496875 756.54257813 -142.734375 755.56640625 C-139.35611472 749.00609777 -136.56700614 742.44046924 -134.25 735.4375 C-133.97285156 734.65117188 -133.69570312 733.86484375 -133.41015625 733.0546875 C-124.68620909 706.75263784 -127.90526232 674.62526986 -139.98046875 650.046875 C-141.25 647.4375 -141.25 647.4375 -142.25 644.4375 C-142.91 644.4375 -143.57 644.4375 -144.25 644.4375 C-144.91 642.1275 -145.57 639.8175 -146.25 637.4375 C-146.91 637.4375 -147.57 637.4375 -148.25 637.4375 C-149.24 634.4675 -149.24 634.4675 -150.25 631.4375 C-150.91 631.4375 -151.57 631.4375 -152.25 631.4375 C-152.58 630.1175 -152.91 628.7975 -153.25 627.4375 C-153.91 627.4375 -154.57 627.4375 -155.25 627.4375 C-156.24 624.9625 -156.24 624.9625 -157.25 622.4375 C-157.91 622.4375 -158.57 622.4375 -159.25 622.4375 C-159.5078125 621.85484375 -159.765625 621.2721875 -160.03125 620.671875 C-161.34834017 618.2572097 -162.80088384 616.62009823 -164.75 614.6875 C-165.3584375 614.07390625 -165.966875 613.4603125 -166.59375 612.828125 C-168.14484277 611.22315912 -168.14484277 611.22315912 -170.25 611.4375 C-171.24 609.4575 -171.24 609.4575 -172.25 607.4375 C-172.91 607.4375 -173.57 607.4375 -174.25 607.4375 C-174.25 606.7775 -174.25 606.1175 -174.25 605.4375 C-174.889375 605.14875 -175.52875 604.86 -176.1875 604.5625 C-178.25 603.4375 -178.25 603.4375 -179.25 601.4375 C-180.24 601.1075 -181.23 600.7775 -182.25 600.4375 C-182.58 599.7775 -182.91 599.1175 -183.25 598.4375 C-185.5640622 597.70674352 -187.89828869 597.03611742 -190.25 596.4375 C-190.25 595.7775 -190.25 595.1175 -190.25 594.4375 C-192.01755526 593.59723604 -193.78917263 592.76551278 -195.5625 591.9375 C-196.54863281 591.4734375 -197.53476563 591.009375 -198.55078125 590.53125 C-201.22800126 589.24972528 -201.22800126 589.24972528 -204.25 589.4375 C-204.25 588.7775 -204.25 588.1175 -204.25 587.4375 C-204.98605469 587.24414062 -205.72210937 587.05078125 -206.48046875 586.8515625 C-207.45628906 586.59117187 -208.43210937 586.33078125 -209.4375 586.0625 C-210.40042969 585.80726563 -211.36335938 585.55203125 -212.35546875 585.2890625 C-215.25 584.4375 -215.25 584.4375 -217.7265625 583.43359375 C-235.07801284 576.58433704 -257.5137094 576.05326893 -275.25 581.4375 Z " fill="#2F5777" transform="translate(1270.25,272.5625)"/>
<path d="M0 0 C1.22267578 0.30808594 2.44535156 0.61617187 3.70507812 0.93359375 C74.29943875 18.96564559 141.54265133 53.87765923 195.19921875 103.4453125 C197.30149532 105.3628702 199.42550512 107.22098016 201.5859375 109.0703125 C206.72423627 113.55475595 211.54339004 118.35733693 216.36303711 123.17773438 C217.92608734 124.73860327 219.49697365 126.29127888 221.06835938 127.84375 C226.76755368 133.51192256 232.07569827 139.28974266 237.07080078 145.59716797 C238.949636 147.93727126 240.91124643 150.16219904 242.9375 152.375 C252.58326707 163.14325278 260.78451378 175.1316267 269 187 C269.42249023 187.60505371 269.84498047 188.21010742 270.28027344 188.83349609 C322.99386985 264.54823067 348.59485414 355.50793773 347 498 C346.83338867 499.24072266 346.66677734 500.48144531 346.49511719 501.75976562 C334.68312246 588.64265105 301.5262106 674.30204287 243.52734375 741.0703125 C241.03670312 743.95745387 238.63817759 746.90286667 236.25 749.875 C233.22823531 753.5903726 230.09829616 757.02295258 226.65625 760.34765625 C224.96233581 762.03757536 223.4225168 763.80059906 221.875 765.625 C214.86500571 773.74266833 207.11173227 781.40678427 198.93359375 788.34375 C196.69663065 790.25985577 194.54196422 792.25512856 192.375 794.25 C186.77663527 799.29449303 180.89330355 803.91667072 174.92578125 808.51123047 C172.96247972 810.02900591 171.01203637 811.56225273 169.0625 813.09765625 C119.91880852 851.55665678 62.98780949 877.70668387 3 894 C1.86578613 894.30808594 0.73157227 894.61617187 -0.43701172 894.93359375 C-36.98970779 904.66453691 -74.28252284 908.25012231 -112 908.3125 C-113.0573938 908.31617584 -114.1147876 908.31985168 -115.20422363 908.32363892 C-135.75660744 908.36098583 -156.2091247 907.10379999 -176.5625 904.1875 C-177.76447021 904.01790771 -178.96644043 903.84831543 -180.20483398 903.67358398 C-191.91980117 901.96204435 -203.46581376 899.65581605 -215 897 C-216.23991699 896.720354 -216.23991699 896.720354 -217.50488281 896.43505859 C-274.82280681 883.38924817 -330.26574366 858.29684589 -378 824 C-379.13646973 823.18813232 -379.13646973 823.18813232 -380.29589844 822.35986328 C-389.68107592 815.63312366 -398.80619883 808.73357503 -407.46704102 801.09301758 C-409.69189874 799.13487553 -411.93417565 797.20326379 -414.20800781 795.30224609 C-422.41051978 788.42923145 -430.10852141 781.17620811 -437.63452148 773.57128906 C-439.45559087 771.73172541 -441.28477504 769.90052859 -443.11523438 768.0703125 C-448.95249324 762.21557652 -454.67184556 756.3282944 -460 750 C-460.845625 749.03578125 -461.69125 748.0715625 -462.5625 747.078125 C-482.59385241 723.83661996 -500.36902564 697.97297056 -515 671 C-515.48130371 670.11425293 -515.96260742 669.22850586 -516.45849609 668.31591797 C-532.73806948 638.15405198 -545.33710228 607.01190241 -555.06738281 574.14794922 C-555.85138647 571.50162902 -556.65259331 568.86159446 -557.4609375 566.22265625 C-568.01145742 530.97165072 -571.98434838 493.65639388 -573 457 C-573.02336426 456.21077148 -573.04672852 455.42154297 -573.07080078 454.60839844 C-575.5463903 357.78996447 -544.59920842 260.01587236 -451.7265625 135.94921875 C-449.94640323 134.0334343 -448.19932418 132.09954766 -446.4609375 130.14453125 C-438.4837776 121.21541421 -429.79800651 113.11186131 -421 105 C-420.06929687 104.13117188 -419.13859375 103.26234375 -418.1796875 102.3671875 C-412.03492059 96.7091348 -405.52635345 91.57156335 -398.91259766 86.47998047 C-396.98739724 84.9902479 -395.0770228 83.4830052 -393.16796875 81.97265625 C-373.94221227 66.87175846 -353.30853008 53.9376587 -332 42 C-331.21447754 41.55495117 -330.42895508 41.10990234 -329.61962891 40.65136719 C-248.53756747 -5.00511068 -150.05895639 -21.98747889 0 0 Z M-136 318 C-137.64343127 318.3248958 -139.2895247 318.63649995 -140.9375 318.9375 C-145.53993316 319.83299605 -149.6756158 321.2169983 -154 323 C-155.83316884 323.72958013 -157.66650593 324.45873761 -159.5 325.1875 C-161.00034778 325.7908025 -162.50047375 326.39465846 -164 327 C-164 327.66 -164 328.32 -164 329 C-166.31 329.66 -168.62 330.32 -171 331 C-171 331.66 -171 332.32 -171 333 C-171.78375 333.144375 -172.5675 333.28875 -173.375 333.4375 C-175.96421018 333.87798925 -175.96421018 333.87798925 -178 335 C-178 335.66 -178 336.32 -178 337 C-178.639375 337.12375 -179.27875 337.2475 -179.9375 337.375 C-180.618125 337.58125 -181.29875 337.7875 -182 338 C-182.33 338.66 -182.66 339.32 -183 340 C-183.680625 340.391875 -184.36125 340.78375 -185.0625 341.1875 C-191.41566393 345.10753732 -196.35407492 350.22398503 -201 356 C-202.3303125 357.2684375 -202.3303125 357.2684375 -203.6875 358.5625 C-206.02567641 361.02706432 -206.79201885 362.89376275 -208 366 C-209.485 366.495 -209.485 366.495 -211 367 C-212.51720902 369.27676621 -212.51720902 369.27676621 -213.875 372.0625 C-215.70742982 375.59483978 -217.58038164 378.95681668 -219.8125 382.25 C-222.1355612 385.85372314 -222.73387046 388.74192738 -223 393 C-223.66 393 -224.32 393 -225 393 C-225.19335938 393.79664063 -225.38671875 394.59328125 -225.5859375 395.4140625 C-225.84632813 396.47367188 -226.10671875 397.53328125 -226.375 398.625 C-226.75785156 400.19121094 -226.75785156 400.19121094 -227.1484375 401.7890625 C-228 405 -228 405 -229 407.875 C-236.62850159 431.71406748 -234.13113699 460.06790805 -223.5 482.625 C-221.59223032 486.72295844 -219.75818421 490.83587951 -218 495 C-217.34 495 -216.68 495 -216 495 C-215.855625 495.598125 -215.71125 496.19625 -215.5625 496.8125 C-215.1127561 498.56150404 -214.57107659 500.28677023 -214 502 C-213.34 502 -212.68 502 -212 502 C-211.79375 502.66 -211.5875 503.32 -211.375 504 C-209.48244564 508.12920951 -206.79623367 511.44313282 -204 515 C-203.01 516.3303125 -203.01 516.3303125 -202 517.6875 C-199.58289365 520.48227921 -196.86483155 522.67232437 -194 525 C-192.88625 526.1446875 -192.88625 526.1446875 -191.75 527.3125 C-190.16523212 529.23137852 -190.16523212 529.23137852 -188 529 C-188 529.66 -188 530.32 -188 531 C-186.51363242 532.3606009 -186.51363242 532.3606009 -184.625 533.625 C-183.99851562 534.07101562 -183.37203125 534.51703125 -182.7265625 534.9765625 C-181.04777357 536.16996969 -181.04777357 536.16996969 -179 536 C-179 536.66 -179 537.32 -179 538 C-177.8553125 538.556875 -177.8553125 538.556875 -176.6875 539.125 C-172.53135406 541.1831871 -168.51913357 543.50157137 -164.48828125 545.79296875 C-162.01106602 547.21822339 -162.01106602 547.21822339 -159 547 C-159 547.66 -159 548.32 -159 549 C-158.02160156 549.29003906 -158.02160156 549.29003906 -157.0234375 549.5859375 C-149.47300771 551.83547558 -149.47300771 551.83547558 -146.125 553 C-134.36769089 556.76233891 -123.29393868 558.17594173 -111 558.125 C-110.06671875 558.12886719 -109.1334375 558.13273437 -108.171875 558.13671875 C-99.51027618 558.12462154 -91.38120927 557.32165455 -83 555.125 C-82.30068359 554.94356445 -81.60136719 554.76212891 -80.88085938 554.57519531 C-78.91811248 554.05940369 -76.95890406 553.53019924 -75 553 C-73.77796875 552.67902344 -73.77796875 552.67902344 -72.53125 552.3515625 C-64.61446098 550.00697498 -57.30709572 545.77458564 -50 542 C-50 541.34 -50 540.68 -50 540 C-48.948125 539.773125 -47.89625 539.54625 -46.8125 539.3125 C-42.78882848 538.16518804 -40.81753955 536.10651796 -38 533 C-35.16143929 530.40701452 -32.70575254 528.23525085 -29 527 C-27.73014972 525.53478814 -26.46462744 524.06442672 -25.2578125 522.546875 C-23.64014268 520.55744255 -21.81215318 518.81215318 -20 517 C-16.99362852 513.90863096 -16.99362852 513.90863096 -16 510 C-15.34 510 -14.68 510 -14 510 C-13.67 509.01 -13.34 508.02 -13 507 C-12.00823004 505.99183715 -11.00743463 504.99250968 -10 504 C-8.14901698 501.10361129 -6.5955577 498.04321258 -5 495 C-4.49984375 494.05253906 -3.9996875 493.10507813 -3.484375 492.12890625 C-0.10611472 485.56859777 2.68299386 479.00296924 5 472 C5.27714844 471.21367188 5.55429688 470.42734375 5.83984375 469.6171875 C14.56379091 443.31513784 11.34473768 411.18776986 -0.73046875 386.609375 C-2 384 -2 384 -3 381 C-3.66 381 -4.32 381 -5 381 C-5.66 378.69 -6.32 376.38 -7 374 C-7.66 374 -8.32 374 -9 374 C-9.99 371.03 -9.99 371.03 -11 368 C-11.66 368 -12.32 368 -13 368 C-13.33 366.68 -13.66 365.36 -14 364 C-14.66 364 -15.32 364 -16 364 C-16.99 361.525 -16.99 361.525 -18 359 C-18.66 359 -19.32 359 -20 359 C-20.2578125 358.41734375 -20.515625 357.8346875 -20.78125 357.234375 C-22.09834017 354.8197097 -23.55088384 353.18259823 -25.5 351.25 C-26.1084375 350.63640625 -26.716875 350.0228125 -27.34375 349.390625 C-28.89484277 347.78565912 -28.89484277 347.78565912 -31 348 C-31.99 346.02 -31.99 346.02 -33 344 C-33.66 344 -34.32 344 -35 344 C-35 343.34 -35 342.68 -35 342 C-35.639375 341.71125 -36.27875 341.4225 -36.9375 341.125 C-39 340 -39 340 -40 338 C-40.99 337.67 -41.98 337.34 -43 337 C-43.33 336.34 -43.66 335.68 -44 335 C-46.3140622 334.26924352 -48.64828869 333.59861742 -51 333 C-51 332.34 -51 331.68 -51 331 C-52.76755526 330.15973604 -54.53917263 329.32801278 -56.3125 328.5 C-57.29863281 328.0359375 -58.28476563 327.571875 -59.30078125 327.09375 C-61.97800126 325.81222528 -61.97800126 325.81222528 -65 326 C-65 325.34 -65 324.68 -65 324 C-65.73605469 323.80664062 -66.47210937 323.61328125 -67.23046875 323.4140625 C-68.20628906 323.15367187 -69.18210937 322.89328125 -70.1875 322.625 C-71.15042969 322.36976563 -72.11335938 322.11453125 -73.10546875 321.8515625 C-76 321 -76 321 -78.4765625 319.99609375 C-95.82801284 313.14683704 -118.2637094 312.61576893 -136 318 Z " fill="#4A93D0" transform="translate(1131,536)"/>
<path d="M0 0 C3.18977619 1.38708509 4.49433023 3.14747206 6.5859375 5.91796875 C9.7237446 9.94560175 12.92799032 13.7972606 16.3984375 17.54296875 C20.49194841 21.99023987 24.32286249 26.59014338 28.1171875 31.29296875 C31.26038008 35.08202282 34.60002345 38.67566227 37.93359375 42.296875 C40.32551047 44.96172041 42.59098634 47.691287 44.8359375 50.48046875 C48.49414765 55.01613318 52.34586715 59.29998045 56.31225586 63.56225586 C60.09334308 67.64957881 63.59533716 71.92340119 67.0859375 76.26171875 C69.59814883 79.28316211 72.22246207 82.16736953 74.8984375 85.04296875 C79.1880151 89.65298514 83.20254647 94.42080111 87.15234375 99.328125 C89.4867434 102.1497037 91.91834348 104.84887587 94.3984375 107.54296875 C97.67262173 111.09967119 100.80486183 114.71458686 103.8359375 118.48046875 C107.05786851 122.47520861 110.40499245 126.28851224 113.8984375 130.04296875 C118.18798863 134.65301211 122.20254422 139.42079831 126.15234375 144.328125 C129.27131619 148.09801342 132.59215597 151.66761326 135.90625 155.265625 C139.20785181 158.94499629 142.30720546 162.77000463 145.390625 166.6328125 C147.28562603 168.90755109 149.27070084 170.98679274 151.3984375 173.04296875 C149.88875224 177.16198656 147.01812838 179.04699161 143.5234375 181.41796875 C142.91048828 181.84368164 142.29753906 182.26939453 141.66601562 182.70800781 C140.30975358 183.64989365 138.95123445 184.58853531 137.59082031 185.52441406 C135.31216207 187.10272746 133.05320615 188.70635618 130.796875 190.31640625 C65.34472466 236.88354598 -7.69882706 271.27473498 -84.6015625 294.04296875 C-85.89489502 294.4282373 -85.89489502 294.4282373 -87.21435547 294.82128906 C-91.47044195 296.07832996 -95.74206065 297.25324976 -100.03710938 298.36962891 C-101.9316987 298.86708486 -103.82319195 299.376367 -105.71289062 299.89208984 C-137.53035138 308.55450557 -170.03601203 313.90111149 -202.7265625 318.04296875 C-203.55341553 318.14910492 -204.38026855 318.25524109 -205.23217773 318.36459351 C-207.58600639 318.66296074 -209.9409377 318.94928465 -212.296875 319.23046875 C-212.9637735 319.31440384 -213.630672 319.39833893 -214.31777954 319.4848175 C-218.51563679 319.96432208 -222.64433438 320.07902396 -226.87057495 320.0637207 C-227.94548628 320.06072464 -229.02039761 320.05772858 -230.127882 320.05464172 C-230.94419657 320.05078964 -231.76051113 320.04693756 -232.6015625 320.04296875 C-234.04218304 292.87773539 -235.47674865 265.71218803 -236.90422821 238.54626083 C-237.56726231 225.93091654 -238.23223137 213.31567995 -238.90185547 200.70068359 C-239.48591383 189.69755866 -240.06624001 178.69424411 -240.64219999 167.69069219 C-240.94691597 161.87161837 -241.25342205 156.05265202 -241.56440735 150.23390961 C-241.85789501 144.74144868 -242.14633914 139.2487446 -242.43114662 133.75582695 C-242.53574471 131.75488482 -242.64208386 129.7540327 -242.75043297 127.75329018 C-243.44863499 114.83626998 -243.72862019 101.9787823 -243.6015625 89.04296875 C-242.57611076 88.90367887 -241.55065903 88.764389 -240.494133 88.62087822 C-166.01320843 78.49446977 -96.21857025 58.5419733 -31.6015625 19.04296875 C-30.42835449 18.33116455 -30.42835449 18.33116455 -29.23144531 17.60498047 C-23.34711627 14.02744326 -17.48781594 10.44467375 -11.9140625 6.39453125 C-11.32326904 5.96825439 -10.73247559 5.54197754 -10.1237793 5.1027832 C-8.52788789 3.93850944 -6.9487764 2.75133147 -5.37109375 1.5625 C-2.6015625 0.04296875 -2.6015625 0.04296875 0 0 Z " fill="#4A93D0" transform="translate(1305.6015625,1382.95703125)"/>
<path d="M0 0 C5.54805895 1.13774843 10.84523707 2.5068444 16.18359375 4.43359375 C16.83255615 4.66703995 17.48151855 4.90048615 18.15014648 5.14100647 C20.24861807 5.89934076 22.34334745 6.66732475 24.4375 7.4375 C25.52588669 7.83557861 25.52588669 7.83557861 26.63626099 8.24169922 C66.21429011 22.74502836 104.5738324 40.80382431 141 62 C141.81291504 62.46809082 142.62583008 62.93618164 143.46337891 63.41845703 C166.13980656 76.50262957 188.05244295 91.30471427 209 107 C209.57379395 107.42893555 210.14758789 107.85787109 210.73876953 108.29980469 C227.60619926 120.96392809 243.97161529 134.45278662 259.50390625 148.72265625 C261.72374551 150.7479556 263.97393516 152.72597771 266.25 154.6875 C269.39586901 157.41775624 272.32427746 160.30318826 275.2421875 163.2734375 C276.97663348 164.97704888 278.77238547 166.55144038 280.625 168.125 C288.80615158 175.1898151 296.46589234 183.00664172 303.4609375 191.2421875 C305.0694055 193.07927024 306.75838868 194.78907787 308.5 196.5 C318.38839286 206.25446429 318.38839286 206.25446429 321 212 C314.79778102 217.74634989 308.51505417 223.28142284 301.9375 228.59765625 C298.64602762 231.28948539 295.41164833 234.04073079 292.1875 236.8125 C291.30747314 237.56889771 291.30747314 237.56889771 290.40966797 238.34057617 C288.60562146 239.89276383 286.80261767 241.44615329 285 243 C271.74670726 254.4242669 271.74670726 254.4242669 265.5625 259.4375 C259.21723119 264.59186792 253.07490552 269.97362765 246.90966797 275.34033203 C239.86727609 281.4607846 232.80997199 287.56030337 225.5625 293.4375 C220.51066283 297.53979949 215.5969402 301.78701978 210.68994141 306.06005859 C206.10903362 310.04703759 201.49258493 313.98811681 196.84863281 317.90136719 C192.83615816 321.28481948 188.85289612 324.70100184 184.875 328.125 C180.81379124 331.61823856 176.72481029 335.06448707 172.5625 338.4375 C167.3769063 342.64598628 162.33229614 347.00568003 157.30102539 351.39624023 C153.57363425 354.64777294 149.81185624 357.84777585 146 361 C142.27834542 359.47941427 140.3061032 357.32719444 137.6875 354.3125 C132.3256522 348.29683899 126.70097658 342.54735604 121.01724243 336.83798218 C120.02059236 335.83591956 119.02587847 334.83192677 118.03329468 333.82583618 C112.11552902 327.83181549 106.032817 322.21986381 99.44287109 316.95483398 C96.92235017 314.93786306 94.4941432 312.84285999 92.07543945 310.70654297 C67.83187944 289.36970638 40.14420155 271.70326863 12 256 C10.86159668 255.36143066 10.86159668 255.36143066 9.70019531 254.70996094 C-17.92420306 239.32085318 -47.84672354 227.43065437 -78 218 C-75.83950987 210.48785202 -73.3437188 203.12798922 -70.7109375 195.76953125 C-70.08764809 194.01855637 -70.08764809 194.01855637 -69.45176697 192.23220825 C-68.32880914 189.07974982 -67.20355056 185.92813332 -66.07699966 182.77695847 C-65.3692197 180.79632456 -64.66239716 178.81535161 -63.9559021 176.83425903 C-56.08109797 154.75247122 -48.12831552 132.69930849 -40.13516235 110.66009521 C-37.61682551 103.71224798 -35.11196771 96.75962395 -32.61328125 89.8046875 C-32.24440292 88.77800461 -31.8755246 87.75132172 -31.49546814 86.69352722 C-30.7461686 84.60793285 -29.99687561 82.52233612 -29.24758911 80.43673706 C-19.60013173 53.58724815 -9.8174612 26.78773685 0 0 Z " fill="#4A93D0" transform="translate(1242,297)"/>
<path d="M0 0 C5.40699782 39.92836159 8.2428852 79.06179512 8.25 119.375 C8.25044186 120.53074335 8.25044186 120.53074335 8.25089264 121.70983505 C8.25232075 144.92248647 8.08088462 167.95268672 5 191 C4.8911145 191.81927979 4.782229 192.63855957 4.67004395 193.48266602 C3.05437458 205.54342252 1.27136785 217.5761007 -0.62362671 229.59588623 C-1.009271 232.05921923 -1.38591456 234.52380617 -1.76098633 236.98876953 C-3.13746633 245.97634174 -4.66230908 254.8812069 -6.6875 263.75 C-6.94313721 264.87865479 -7.19877441 266.00730957 -7.4621582 267.17016602 C-14.67841015 298.60549306 -23.67578999 329.45256622 -34 360 C-37.54785514 359.37824061 -40.72495236 358.44130934 -44.07348633 357.12084961 C-45.06683487 356.73144196 -46.06018341 356.3420343 -47.08363342 355.94082642 C-48.15560471 355.51562714 -49.22757599 355.09042786 -50.33203125 354.65234375 C-51.45802231 354.20941986 -52.58401337 353.76649597 -53.74412537 353.31015015 C-56.79872347 352.10742819 -59.85178888 350.90091645 -62.90412903 349.69247818 C-65.47081748 348.67706042 -68.03871808 347.66472803 -70.60661888 346.65238094 C-86.70550844 340.30529547 -102.78651661 333.91369865 -118.84619141 327.46801758 C-133.95116323 321.4071755 -149.07896563 315.40418551 -164.2074585 309.40237427 C-186.02190785 300.74809138 -207.83372066 292.08750578 -229.625 283.375 C-230.57587494 282.99514954 -231.52674988 282.61529907 -232.50643921 282.22393799 C-235.12187281 281.17891564 -237.73681942 280.13268617 -240.3515625 279.0859375 C-241.10952621 278.7831488 -241.86748993 278.48036011 -242.64842224 278.168396 C-247.76894203 276.11552898 -247.76894203 276.11552898 -250 275 C-248.32866529 268.69262017 -246.53740582 262.44701359 -244.55249023 256.23144531 C-230.39460725 211.52402368 -223.7972115 163.2039071 -223.75 116.375 C-223.74799088 115.17242554 -223.74799088 115.17242554 -223.74594116 113.94555664 C-223.75485095 88.87279562 -225.6035288 63.7113032 -229.44921875 38.9296875 C-229.88170034 35.8440387 -230.04722184 33.09252848 -230 30 C-204.26684688 26.21877428 -178.50056952 22.71030726 -152.71337891 19.31954956 C-148.3023475 18.73954035 -143.8913736 18.15909594 -139.48046875 17.578125 C-138.72429638 17.47853548 -137.96812401 17.37894596 -137.18903732 17.27633858 C-123.68117517 15.49612647 -110.17783719 13.68305993 -96.67578125 11.859375 C-95.6833032 11.72534901 -94.69082516 11.59132301 -93.66827202 11.45323563 C-84.76646253 10.25092084 -75.86481763 9.04739342 -66.96359253 7.84075928 C-30.87036654 2.94822477 -30.87036654 2.94822477 -16.828125 1.1484375 C-15.90167175 1.02683258 -14.97521851 0.90522766 -14.02069092 0.77993774 C-9.30287331 0.1863644 -4.75515694 -0.11827548 0 0 Z " fill="#4A93D0" transform="translate(1733,869)"/>
<path d="M0 0 C0.42482666 1.15967285 0.84965332 2.3193457 1.28735352 3.51416016 C10.65978332 29.0915487 20.0810485 54.65035972 29.5625 80.1875 C29.92944096 81.17582699 29.92944096 81.17582699 30.30379486 82.18412018 C31.04610718 84.18346012 31.78843273 86.18279515 32.53076172 88.18212891 C33.50750061 90.81282046 34.48422315 93.44351808 35.4609375 96.07421875 C35.69991634 96.71786125 35.93889519 97.36150375 36.18511581 98.02465057 C41.36697904 111.98160952 46.53262401 125.94454175 51.68383789 139.9128418 C55.35346134 149.86008254 59.04162151 159.80012257 62.75074196 169.73271179 C64.38032529 174.09868669 66.00606087 178.46609641 67.63247681 182.83325195 C68.53690539 185.25830168 69.44326666 187.68263157 70.35165405 190.10620117 C71.61429016 193.47526229 72.87030523 196.84672488 74.125 200.21875 C74.50328445 201.22276855 74.88156891 202.22678711 75.27131653 203.26123047 C76.96529098 207.83217955 78.45916497 212.120193 79 217 C73.59008193 219.78242803 68.11269656 222.29348158 62.52709961 224.70239258 C19.74618353 243.16203811 -21.74970475 267.37259804 -56.8515625 298.25390625 C-59.79136049 300.83995635 -62.81943104 303.30135912 -65.875 305.75 C-69.87700704 308.99613748 -73.5307429 312.41793651 -77.1171875 316.11328125 C-78.94730865 317.94719933 -80.84117186 319.63248148 -82.8125 321.3125 C-90.47510212 327.91714917 -97.57673648 335.18792274 -104 343 C-109.80034069 339.01429104 -114.66440617 334.44756178 -119.58203125 329.42578125 C-122.16005074 326.83943214 -124.84993087 324.46743296 -127.62109375 322.09375 C-130.89415691 319.21302446 -134.06870556 316.23137051 -137.25 313.25 C-141.79022928 308.99563287 -146.3418046 304.75693414 -150.9375 300.5625 C-155.70501957 296.20675 -160.42086592 291.799074 -165.125 287.375 C-169.35850306 283.39400784 -173.59826064 279.4286366 -177.9375 275.5625 C-182.5389586 271.4593381 -187.01873792 267.23329859 -191.5 263 C-196.75361365 258.03733823 -202.03937468 253.12647977 -207.43359375 248.31640625 C-214.03628864 242.35689625 -220.48660868 236.22810042 -226.97753906 230.14746094 C-235.85928373 221.81328972 -235.85928373 221.81328972 -244.875 213.625 C-250.30361299 208.78030505 -255.5752113 203.77012335 -260.84912109 198.75830078 C-265.12976916 194.70457384 -269.49163949 190.79931299 -274 187 C-272.7252918 183.33242804 -271.3437382 180.97089245 -268.59521484 178.23876953 C-267.55305313 177.19210617 -267.55305313 177.19210617 -266.48983765 176.1242981 C-265.36178207 175.01476273 -265.36178207 175.01476273 -264.2109375 173.8828125 C-263.43368317 173.10743134 -262.65642883 172.33205017 -261.85562134 171.53317261 C-260.20981622 169.89408447 -258.5604199 168.25859548 -256.90771484 166.62646484 C-254.39821666 164.1479302 -251.89936246 161.65906919 -249.40234375 159.16796875 C-247.79749185 157.57229602 -246.1920418 155.97722463 -244.5859375 154.3828125 C-243.47610001 153.27934982 -243.47610001 153.27934982 -242.34384155 152.15359497 C-238.26042756 148.12515124 -234.09209656 144.24810046 -229.74302673 140.50738525 C-227.16362752 138.27669753 -224.68284892 135.94933899 -222.1875 133.625 C-217.62531976 129.41491746 -212.9469548 125.40555104 -208.109375 121.51171875 C-205.70868135 119.57246496 -203.32620166 117.61713745 -200.953125 115.64453125 C-192.7938306 108.86530644 -184.57671225 102.24920298 -176 96 C-174.77192992 95.08881857 -173.54407934 94.17734125 -172.31640625 93.265625 C-144.18148042 72.51704513 -114.56547923 53.84423856 -83.70068359 37.43847656 C-81.01902878 36.01013538 -78.34735829 34.56427135 -75.67578125 33.1171875 C-55.09235758 22.07034961 -33.71226419 12.47417016 -12.125 3.5625 C-11.22837646 3.1910083 -10.33175293 2.8195166 -9.40795898 2.43676758 C-8.59528564 2.10829834 -7.7826123 1.7798291 -6.9453125 1.44140625 C-5.90141357 1.01903687 -5.90141357 1.01903687 -4.83642578 0.58813477 C-3 0 -3 0 0 0 Z " fill="#4A93D0" transform="translate(762,309)"/>
<path d="M0 0 C2.90353048 1.19033912 4.18647282 3.2504252 6.08422852 5.71508789 C9.75667977 10.37047766 13.5607523 14.82003537 17.56079102 19.19555664 C18.81487215 20.58175669 20.06328044 21.9738042 21.27294922 23.39892578 C26.56930122 29.61015402 32.31520394 35.3476341 38.09375 41.10498047 C39.83066452 42.83653489 41.56216741 44.57337148 43.29321289 46.31079102 C48.99106819 52.01242476 54.72213588 57.58718415 60.89672852 62.77758789 C61.95326005 63.68972094 63.00927352 64.60245451 64.06469727 65.51586914 C71.49326636 71.84889247 79.06474053 77.9485003 86.89672852 83.77758789 C87.55769531 84.26984863 88.21866211 84.76210937 88.8996582 85.26928711 C106.93052563 98.63211704 125.77941209 111.71892968 145.89672852 121.77758789 C145.20166439 125.52418048 143.56205376 128.45757345 141.72094727 131.77368164 C141.39994553 132.35446976 141.07894379 132.93525787 140.74821472 133.53364563 C139.69823179 135.43009911 138.6414259 137.32264813 137.58422852 139.21508789 C136.85041562 140.53623718 136.1168566 141.85752752 135.38354492 143.17895508 C130.76144221 151.49484494 126.0786878 159.77515557 121.33691406 168.0234375 C117.47319201 174.7470044 113.67733592 181.50698069 109.89672852 188.27758789 C105.09798493 196.86826314 100.25572587 205.43186206 95.36328125 213.96948242 C90.04843123 223.24736765 84.79306494 232.55861162 79.5378418 241.87036133 C76.82623828 246.67395767 74.11132755 251.47568395 71.39672852 256.27758789 C70.31337909 258.19424546 69.23004576 260.11091213 68.14672852 262.02758789 C65.98006185 265.86092122 63.81339518 269.69425456 61.64672852 273.52758789 C61.10991455 274.47738525 60.57310059 275.42718262 60.02001953 276.40576172 C58.94255461 278.31194608 57.8649194 280.21803419 56.78710938 282.12402344 C53.98754607 287.0752717 51.19144518 292.02843125 48.40063477 296.98461914 C47.82442383 298.0068457 47.24821289 299.02907227 46.65454102 300.08227539 C45.56358316 302.01784578 44.47365585 303.95399757 43.38500977 305.89086914 C39.98793003 311.91455693 36.48421975 317.86535772 32.89672852 323.77758789 C26.28672492 321.75746014 20.80549112 318.42847664 14.89672852 314.90258789 C14.31480743 314.55666595 13.73288635 314.21074402 13.1333313 313.8543396 C-18.11462065 295.23717662 -48.22171523 274.14111095 -76.10327148 250.77758789 C-76.61841309 250.34736328 -77.13355469 249.91713867 -77.66430664 249.47387695 C-84.16269577 244.04152436 -90.56697216 238.52819212 -96.83374023 232.82836914 C-98.93979566 230.92530701 -101.07647617 229.06604968 -103.22827148 227.21508789 C-106.69409436 224.20163145 -109.90929423 220.98996941 -113.13061523 217.71899414 C-114.91823256 215.95969551 -116.75053274 214.33249253 -118.66577148 212.71508789 C-127.58629425 205.03352662 -136.03934142 196.45530102 -143.63452148 187.46508789 C-145.21590118 185.64818356 -146.88524344 183.96547509 -148.60327148 182.27758789 C-152.31523709 178.6147874 -155.71227886 174.73693897 -159.10327148 170.77758789 C-160.03402715 169.69926094 -160.96503686 168.62115324 -161.89624023 167.54321289 C-170.56187837 157.49407904 -179.02003168 147.30399342 -187.10327148 136.77758789 C-185.74820064 133.60968633 -184.41545053 131.9714347 -181.60327148 130.00024414 C-180.89050049 129.49372314 -180.17772949 128.98720215 -179.44335938 128.46533203 C-178.67113037 127.92900146 -177.89890137 127.3926709 -177.10327148 126.84008789 C-175.45600267 125.67360958 -173.80887097 124.50693762 -172.16186523 123.34008789 C-170.89705322 122.45063477 -170.89705322 122.45063477 -169.60668945 121.54321289 C-165.77163692 118.83840502 -161.968257 116.09040072 -158.16577148 113.34008789 C-157.42713867 112.80714111 -156.68850586 112.27419434 -155.92749023 111.72509766 C-150.46117282 107.77608526 -145.02729422 103.78443383 -139.60327148 99.77758789 C-129.74919328 92.49816167 -119.81752815 85.32928465 -109.8737793 78.1730957 C-100.61174953 71.50524495 -91.38742255 64.7908175 -82.20898438 58.00830078 C-76.12782244 53.51942426 -70.0073164 49.08767976 -63.87280273 44.67211914 C-58.42243187 40.74366684 -53.00660071 36.77044268 -47.60327148 32.77758789 C-40.71094179 27.68588725 -33.79775145 22.62525645 -26.83325195 17.63256836 C-22.8955857 14.80826919 -18.98856801 11.95106491 -15.11499023 9.03930664 C-14.29716064 8.43094971 -13.47933105 7.82259277 -12.63671875 7.19580078 C-11.06315278 6.02419997 -9.49684666 4.84276748 -7.93896484 3.65039062 C-6.87947632 2.86643921 -6.87947632 2.86643921 -5.79858398 2.06665039 C-5.17999512 1.59952637 -4.56140625 1.13240234 -3.92407227 0.65112305 C-2.10327148 -0.22241211 -2.10327148 -0.22241211 0 0 Z " fill="#4A93D0" transform="translate(636.103271484375,1290.222412109375)"/>
<path d="M0 0 C8.56857777 0.54838898 16.69694966 2.41490819 25.01757812 4.40649414 C29.3518365 5.44274337 33.69140096 6.45621015 38.03125 7.46875 C38.93359375 7.67947144 39.8359375 7.89019287 40.765625 8.1072998 C50.48362726 10.36468199 60.2392584 12.43694501 70 14.5 C83.65634514 17.39213799 97.27918284 20.39776566 110.875 23.5625 C123.28020935 26.44908542 135.69079505 29.3031215 148.125 32.0625 C148.85613007 32.22482117 149.58726013 32.38714233 150.34054565 32.55438232 C161.23187588 34.96946415 172.13520948 37.32715543 183.04177856 39.67230225 C193.94213034 42.01641316 204.83866923 44.36269543 215.6875 46.9375 C216.53046631 47.13690186 217.37343262 47.33630371 218.24194336 47.54174805 C223.73766122 48.86883061 223.73766122 48.86883061 226 50 C225.34483327 59.44841752 224.05852138 68.70951404 222.54882812 78.0546875 C219.38171164 98.47837404 218.59726936 118.79834222 218.6228447 139.4485054 C218.62502771 141.52637789 218.62347373 143.60422596 218.62161255 145.68209839 C218.61847789 166.73904651 219.68421958 187.42257643 222.54248047 208.29736328 C223.26965988 214.18231687 223.65405154 220.08075829 224 226 C204.61995277 230.41078384 185.24588652 234.8091245 165.76513672 238.75585938 C156.11967126 240.72759186 146.52880707 242.9080801 136.9375 245.125 C127.16747195 247.38292503 117.40175545 249.59374427 107.55566406 251.49926758 C99.9082667 252.98946797 92.29762232 254.64419267 84.6875 256.3125 C84.00268555 256.46261536 83.31787109 256.61273071 82.61230469 256.76739502 C72.66973649 258.95004487 62.73918347 261.18365888 52.8125 263.4375 C41.62278319 265.9770412 30.42128071 268.45792011 19.20785522 270.89065552 C17.53487641 271.25364373 15.86204363 271.61730567 14.18936157 271.98165894 C11.85978907 272.48869471 9.52961806 272.99287358 7.19921875 273.49609375 C6.49868378 273.64884766 5.7981488 273.80160156 5.0763855 273.95898438 C0.22974591 275 0.22974591 275 -2 275 C-7.17047966 245.84423968 -11.20146477 216.57615088 -13 187 C-13.04236786 186.31682709 -13.08473572 185.63365417 -13.12838745 184.92977905 C-13.97655921 170.93069372 -14.2032006 156.96028689 -14.1875 142.9375 C-14.18656342 141.84573456 -14.18562683 140.75396912 -14.18466187 139.62911987 C-14.09967665 93.59183319 -11.87761864 44.70565586 0 0 Z " fill="#4A93D0" transform="translate(311,840)"/>
<path d="M0 0 C0.77327637 0.16129395 1.54655273 0.32258789 2.34326172 0.48876953 C26.00522894 5.4798612 48.67827652 14.07563428 68 29 C69.01578125 29.7425 70.0315625 30.485 71.078125 31.25 C76.06040184 34.90352013 80.66032704 38.58358041 85 43 C86.51167674 44.3230358 88.03218535 45.63606719 89.5625 46.9375 C93.12501111 50.06282069 95.52254092 52.99795071 98 57 C98.99 57.66 99.98 58.32 101 59 C102.1328125 60.62109375 102.1328125 60.62109375 103.125 62.4375 C103.62386719 63.33275391 103.62386719 63.33275391 104.1328125 64.24609375 C105 66 105 66 106 69 C106.66 69 107.32 69 108 69 C108.96189997 70.72718516 109.91936508 72.45684058 110.875 74.1875 C111.40867187 75.15042969 111.94234375 76.11335937 112.4921875 77.10546875 C113.8423678 79.69739518 114.97098329 82.26761098 116 85 C116.66 85 117.32 85 118 85 C119.0063655 87.43504509 120.00526413 89.87270864 121 92.3125 C121.28617188 93.00279297 121.57234375 93.69308594 121.8671875 94.40429688 C123.08910744 97.41545674 124 99.71886984 124 103 C124.66 103 125.32 103 126 103 C139.50282181 149.95522751 139.99741161 196.2042396 116.09765625 240.03515625 C110.33475188 250.35096016 104.00513885 259.68241906 96.15234375 268.5234375 C94.00009601 270.79216676 94.00009601 270.79216676 93 273 C92.34 273 91.68 273 91 273 C90.690625 273.8353125 90.690625 273.8353125 90.375 274.6875 C88.86435988 277.22812201 87.06141825 278.76507497 84.73046875 280.55859375 C82.8392955 282.08587328 82.8392955 282.08587328 80.67578125 284.359375 C72.27032972 292.65438994 62.18709743 299.13147465 52 305 C51.42556152 305.33773438 50.85112305 305.67546875 50.25927734 306.0234375 C40.97656248 311.44578645 31.57996796 315.23163509 21.28955078 318.31201172 C19.03811148 318.98854786 16.79897933 319.69800364 14.55859375 320.41015625 C-9.51239312 327.82845951 -34.25512505 326.75763781 -59 324 C-59 323.34 -59 322.68 -59 322 C-59.64686768 321.97494385 -60.29373535 321.9498877 -60.96020508 321.92407227 C-68.70035336 321.4445697 -75.40540721 319.51945452 -82.6875 316.9375 C-83.78255859 316.56044922 -84.87761719 316.18339844 -86.00585938 315.79492188 C-88.67461257 314.87426029 -91.33891298 313.94254171 -94 313 C-94 312.34 -94 311.68 -94 311 C-96.97 310.34 -99.94 309.68 -103 309 C-103 308.34 -103 307.68 -103 307 C-104.65 306.67 -106.3 306.34 -108 306 C-108 305.34 -108 304.68 -108 304 C-110.31 303.34 -112.62 302.68 -115 302 C-115 301.34 -115 300.68 -115 300 C-115.68835938 299.77441406 -116.37671875 299.54882812 -117.0859375 299.31640625 C-120.69002937 297.68828432 -123.57048356 295.40273187 -126.625 292.9375 C-130.95648665 289.37448442 -130.95648665 289.37448442 -136 287 C-137.5078125 285.46875 -137.5078125 285.46875 -139.125 283.5 C-141.82924913 280.30302751 -144.63911777 277.31111752 -147.625 274.375 C-150.97935589 271.05504776 -154.15207269 267.76661353 -157 264 C-157 263.34 -157 262.68 -157 262 C-157.66 262 -158.32 262 -159 262 C-160.34648215 260.05012739 -161.60187034 258.03700593 -162.8125 256 C-163.52698524 254.80577502 -164.24182869 253.61176428 -164.95703125 252.41796875 C-165.63121094 251.29003906 -166.30539062 250.16210938 -167 249 C-167.99534429 247.4345301 -168.99436458 245.87137897 -170 244.3125 C-172 241 -172 241 -172 239 C-172.66 239 -173.32 239 -174 239 C-174.36351562 238.05640625 -174.36351562 238.05640625 -174.734375 237.09375 C-176.30058073 233.09390152 -177.8424572 229.19147465 -179.9375 225.4375 C-183.08192902 219.37235627 -184.62046104 212.56882782 -186.43481445 206.01391602 C-186.95919484 204.14540032 -187.51915681 202.28696994 -188.08203125 200.4296875 C-189.04059904 196.84831508 -189.59267368 193.36320004 -190.0625 189.6875 C-190.52725854 185.19186557 -190.52725854 185.19186557 -192 181 C-192.08705146 178.01029711 -192.11550145 175.04415045 -192.09765625 172.0546875 C-192.0962413 171.1696756 -192.09482635 170.2846637 -192.09336853 169.37283325 C-192.0877614 166.54018809 -192.07520771 163.70762136 -192.0625 160.875 C-192.05748592 158.95703239 -192.05292285 157.03906354 -192.04882812 155.12109375 C-192.03778966 150.41403218 -192.02052025 145.7070294 -192 141 C-191.34 141 -190.68 141 -190 141 C-190.0309375 139.2365625 -190.0309375 139.2365625 -190.0625 137.4375 C-190.0515634 131.23644761 -188.97836232 125.8579168 -187 120 C-186.44977092 118.1479608 -185.89961039 116.29590069 -185.35107422 114.44335938 C-183.20585551 107.28449792 -180.61838678 100.60809172 -177.359375 93.86328125 C-175.67094391 90.30690197 -174.30944131 86.7100837 -173 83 C-172.34 83 -171.68 83 -171 83 C-170.896875 82.46375 -170.79375 81.9275 -170.6875 81.375 C-169.81907303 78.37497956 -168.44379704 75.7620465 -167 73 C-166.34 73 -165.68 73 -165 73 C-164.690625 71.7315625 -164.690625 71.7315625 -164.375 70.4375 C-162.91752901 66.79382252 -161.28122494 64.75124341 -158.6796875 61.89453125 C-156.96781878 59.96370257 -155.46517234 57.95369843 -153.9375 55.875 C-150.66777564 51.63755453 -147.06247614 47.8089528 -143.3125 44 C-142.75361084 43.42362793 -142.19472168 42.84725586 -141.61889648 42.25341797 C-138.7648689 39.4032362 -136.85148206 37.94039056 -133 37 C-132.690625 36.360625 -132.38125 35.72125 -132.0625 35.0625 C-131 33 -131 33 -128.375 31.75 C-127.59125 31.5025 -126.8075 31.255 -126 31 C-126 30.34 -126 29.68 -126 29 C-125.030625 28.731875 -124.06125 28.46375 -123.0625 28.1875 C-122.051875 27.795625 -121.04125 27.40375 -120 27 C-119.505 25.515 -119.505 25.515 -119 24 C-117.35 23.67 -115.7 23.34 -114 23 C-114 22.34 -114 21.68 -114 21 C-111 19 -111 19 -107 19 C-107 18.34 -107 17.68 -107 17 C-105.35 16.67 -103.7 16.34 -102 16 C-102 15.34 -102 14.68 -102 14 C-100.71416016 13.63648438 -100.71416016 13.63648438 -99.40234375 13.265625 C-93.81509321 11.627874 -88.91533946 10.05341364 -83.9296875 7 C-60.89443909 -4.93729472 -24.79432699 -5.39493248 0 0 Z M-53 43 C-54.64343127 43.3248958 -56.2895247 43.63649995 -57.9375 43.9375 C-62.53993316 44.83299605 -66.6756158 46.2169983 -71 48 C-72.83316884 48.72958013 -74.66650593 49.45873761 -76.5 50.1875 C-78.00034778 50.7908025 -79.50047375 51.39465846 -81 52 C-81 52.66 -81 53.32 -81 54 C-83.31 54.66 -85.62 55.32 -88 56 C-88 56.66 -88 57.32 -88 58 C-88.78375 58.144375 -89.5675 58.28875 -90.375 58.4375 C-92.96421018 58.87798925 -92.96421018 58.87798925 -95 60 C-95 60.66 -95 61.32 -95 62 C-95.639375 62.12375 -96.27875 62.2475 -96.9375 62.375 C-97.618125 62.58125 -98.29875 62.7875 -99 63 C-99.33 63.66 -99.66 64.32 -100 65 C-100.680625 65.391875 -101.36125 65.78375 -102.0625 66.1875 C-108.41566393 70.10753732 -113.35407492 75.22398503 -118 81 C-119.3303125 82.2684375 -119.3303125 82.2684375 -120.6875 83.5625 C-123.02567641 86.02706432 -123.79201885 87.89376275 -125 91 C-126.485 91.495 -126.485 91.495 -128 92 C-129.51720902 94.27676621 -129.51720902 94.27676621 -130.875 97.0625 C-132.70742982 100.59483978 -134.58038164 103.95681668 -136.8125 107.25 C-139.1355612 110.85372314 -139.73387046 113.74192738 -140 118 C-140.66 118 -141.32 118 -142 118 C-142.19335938 118.79664063 -142.38671875 119.59328125 -142.5859375 120.4140625 C-142.84632813 121.47367188 -143.10671875 122.53328125 -143.375 123.625 C-143.75785156 125.19121094 -143.75785156 125.19121094 -144.1484375 126.7890625 C-145 130 -145 130 -146 132.875 C-153.62850159 156.71406748 -151.13113699 185.06790805 -140.5 207.625 C-138.59223032 211.72295844 -136.75818421 215.83587951 -135 220 C-134.34 220 -133.68 220 -133 220 C-132.855625 220.598125 -132.71125 221.19625 -132.5625 221.8125 C-132.1127561 223.56150404 -131.57107659 225.28677023 -131 227 C-130.34 227 -129.68 227 -129 227 C-128.79375 227.66 -128.5875 228.32 -128.375 229 C-126.48244564 233.12920951 -123.79623367 236.44313282 -121 240 C-120.01 241.3303125 -120.01 241.3303125 -119 242.6875 C-116.58289365 245.48227921 -113.86483155 247.67232437 -111 250 C-109.88625 251.1446875 -109.88625 251.1446875 -108.75 252.3125 C-107.16523212 254.23137852 -107.16523212 254.23137852 -105 254 C-105 254.66 -105 255.32 -105 256 C-103.51363242 257.3606009 -103.51363242 257.3606009 -101.625 258.625 C-100.99851562 259.07101562 -100.37203125 259.51703125 -99.7265625 259.9765625 C-98.04777357 261.16996969 -98.04777357 261.16996969 -96 261 C-96 261.66 -96 262.32 -96 263 C-94.8553125 263.556875 -94.8553125 263.556875 -93.6875 264.125 C-89.53135406 266.1831871 -85.51913357 268.50157137 -81.48828125 270.79296875 C-79.01106602 272.21822339 -79.01106602 272.21822339 -76 272 C-76 272.66 -76 273.32 -76 274 C-75.02160156 274.29003906 -75.02160156 274.29003906 -74.0234375 274.5859375 C-66.47300771 276.83547558 -66.47300771 276.83547558 -63.125 278 C-51.36769089 281.76233891 -40.29393868 283.17594173 -28 283.125 C-27.06671875 283.12886719 -26.1334375 283.13273437 -25.171875 283.13671875 C-16.51027618 283.12462154 -8.38120927 282.32165455 0 280.125 C0.69931641 279.94356445 1.39863281 279.76212891 2.11914062 279.57519531 C4.08188752 279.05940369 6.04109594 278.53019924 8 278 C9.22203125 277.67902344 9.22203125 277.67902344 10.46875 277.3515625 C18.38553902 275.00697498 25.69290428 270.77458564 33 267 C33 266.34 33 265.68 33 265 C34.051875 264.773125 35.10375 264.54625 36.1875 264.3125 C40.21117152 263.16518804 42.18246045 261.10651796 45 258 C47.83856071 255.40701452 50.29424746 253.23525085 54 252 C55.26985028 250.53478814 56.53537256 249.06442672 57.7421875 247.546875 C59.35985732 245.55744255 61.18784682 243.81215318 63 242 C66.00637148 238.90863096 66.00637148 238.90863096 67 235 C67.66 235 68.32 235 69 235 C69.33 234.01 69.66 233.02 70 232 C70.99176996 230.99183715 71.99256537 229.99250968 73 229 C74.85098302 226.10361129 76.4044423 223.04321258 78 220 C78.50015625 219.05253906 79.0003125 218.10507813 79.515625 217.12890625 C82.89388528 210.56859777 85.68299386 204.00296924 88 197 C88.27714844 196.21367188 88.55429688 195.42734375 88.83984375 194.6171875 C97.56379091 168.31513784 94.34473768 136.18776986 82.26953125 111.609375 C81 109 81 109 80 106 C79.34 106 78.68 106 78 106 C77.34 103.69 76.68 101.38 76 99 C75.34 99 74.68 99 74 99 C73.01 96.03 73.01 96.03 72 93 C71.34 93 70.68 93 70 93 C69.67 91.68 69.34 90.36 69 89 C68.34 89 67.68 89 67 89 C66.01 86.525 66.01 86.525 65 84 C64.34 84 63.68 84 63 84 C62.7421875 83.41734375 62.484375 82.8346875 62.21875 82.234375 C60.90165983 79.8197097 59.44911616 78.18259823 57.5 76.25 C56.8915625 75.63640625 56.283125 75.0228125 55.65625 74.390625 C54.10515723 72.78565912 54.10515723 72.78565912 52 73 C51.01 71.02 51.01 71.02 50 69 C49.34 69 48.68 69 48 69 C48 68.34 48 67.68 48 67 C47.360625 66.71125 46.72125 66.4225 46.0625 66.125 C44 65 44 65 43 63 C42.01 62.67 41.02 62.34 40 62 C39.67 61.34 39.34 60.68 39 60 C36.6859378 59.26924352 34.35171131 58.59861742 32 58 C32 57.34 32 56.68 32 56 C30.23244474 55.15973604 28.46082737 54.32801278 26.6875 53.5 C25.70136719 53.0359375 24.71523437 52.571875 23.69921875 52.09375 C21.02199874 50.81222528 21.02199874 50.81222528 18 51 C18 50.34 18 49.68 18 49 C17.26394531 48.80664062 16.52789063 48.61328125 15.76953125 48.4140625 C14.79371094 48.15367187 13.81789063 47.89328125 12.8125 47.625 C11.84957031 47.36976563 10.88664062 47.11453125 9.89453125 46.8515625 C7 46 7 46 4.5234375 44.99609375 C-12.82801284 38.14683704 -35.2637094 37.61576893 -53 43 Z " fill="#2F5777" transform="translate(1048,811)"/>
<path d="M0 0 C0.33 0.99 0.66 1.98 1 3 C-0.28548409 4.33929505 -1.57858155 5.67128643 -2.875 7 C-3.59429688 7.7425 -4.31359375 8.485 -5.0546875 9.25 C-7 11 -7 11 -9 11 C-7.90299157 7.7089747 -7.12380142 7.03976712 -4.5 4.9375 C-1.81893599 2.82278233 -1.81893599 2.82278233 0 0 Z " fill="#4384B9" transform="translate(1139,1084)"/>
<path d="M0 0 C1.65 0 3.3 0 5 0 C5 0.33 5 0.66 5 1 C3.35 1 1.7 1 0 1 C0 0.67 0 0.34 0 0 Z " fill="#2F5777" transform="translate(895,1695)"/>
<path d="M0 0 C3 1 3 1 3 1 Z " fill="#2F5777" transform="translate(892,1694)"/>
</svg>
